<svg width="230" height="55" viewBox="0 0 230 55" fill="none" xmlns="http://www.w3.org/2000/svg">
<path d="M50 7.31921H58.1297C61.4256 7.31921 63.4979 8.99373 63.4979 11.8362C63.4979 13.8554 62.4872 15.2107 61.0277 15.7681C63.4193 16.1659 65.066 17.9468 65.066 20.7361C65.066 23.8192 62.7809 25.917 58.9277 25.917H50V7.31689V7.31921ZM57.7597 15.1043C60.0448 15.1043 61.3469 14.0936 61.3469 12.2341C61.3469 10.3745 60.0448 9.28515 57.7597 9.28515H52.1533V15.1043H57.7597ZM58.5299 23.9533C61.2128 23.9533 62.7555 22.7044 62.7555 20.4447C62.7555 18.1851 61.2151 17.0171 58.5299 17.0171H52.1533V23.9533H58.5299Z" fill="#29C5F6"/>
<path d="M87.0129 16.6192C87.0129 22.0938 82.9746 26.2384 77.6065 26.2384C72.2383 26.2384 68.2278 22.0938 68.2278 16.6192C68.2278 11.1447 72.266 7 77.6065 7C82.9469 7 87.0129 11.1447 87.0129 16.6192ZM84.8064 16.6192C84.8064 12.2618 81.6447 9.01914 77.6065 9.01914C73.5682 9.01914 70.4319 12.2618 70.4319 16.6192C70.4319 20.9767 73.5936 24.2193 77.6065 24.2193C81.6193 24.2193 84.8064 20.9767 84.8064 16.6192Z" fill="#29C5F6"/>
<path d="M109.438 16.6192C109.438 22.0938 105.4 26.2384 100.032 26.2384C94.6638 26.2384 90.6533 22.0938 90.6533 16.6192C90.6533 11.1447 94.6916 7 100.032 7C105.372 7 109.438 11.1447 109.438 16.6192ZM107.232 16.6192C107.232 12.2618 104.07 9.01914 100.032 9.01914C95.9937 9.01914 92.8575 12.2618 92.8575 16.6192C92.8575 20.9767 96.0192 24.2193 100.032 24.2193C104.045 24.2193 107.232 20.9767 107.232 16.6192Z" fill="#29C5F6"/>
<path d="M113.847 7.31934H115.972L122.562 16.1938L129.151 7.31934H131.251V25.9194H129.126V10.5874L123.228 18.5067H121.926L115.975 10.5874V25.9194H113.849V7.31934H113.847Z" fill="#29C5F6"/>
<path d="M136.379 7.31921H149.213V9.28515H138.532V14.9702H147.275V16.9361H138.532V23.951H149.613V25.917H136.381V7.31689L136.379 7.31921Z" fill="#29C5F6"/>
<path d="M153.383 7.31934H161.725C165.472 7.31934 167.651 9.41942 167.651 12.4215C167.651 14.9726 166.136 16.9131 163.319 17.4428L169.298 25.9194H166.747L160.955 17.6555H155.534V25.9194H153.38V7.31934H153.383ZM161.593 15.715C164.064 15.715 165.472 14.5725 165.472 12.5002C165.472 10.4278 164.064 9.28527 161.593 9.28527H155.536V15.715H161.593Z" fill="#29C5F6"/>
<path d="M179.342 7.21289H181.389L189.653 25.9194H187.368L185.108 20.8981H175.542L173.336 25.9194H171.079L179.342 7.21289ZM184.417 18.9831L180.351 9.92126L176.285 18.9831H184.415H184.417Z" fill="#29C5F6"/>
<path d="M192.972 7.31934H194.832L206.336 22.1726V7.31934H208.436V25.9194H206.602L195.07 11.013V25.9194H192.97V7.31934H192.972Z" fill="#29C5F6"/>
<path d="M212.794 16.6192C212.794 11.0128 216.938 7 222.385 7C224.723 7 226.664 7.58516 228.257 8.72771V10.9064C226.504 9.63204 224.51 9.01914 222.519 9.01914C218.24 9.01914 215 12.1808 215 16.6447C215 21.1085 218.296 24.217 222.334 24.217C224.3 24.217 226.187 23.6318 227.462 22.3574V15.2361H229.587V23.2086C228.126 24.9085 225.521 26.2384 222.334 26.2384C216.966 26.2384 212.796 22.2788 212.796 16.6192H212.794Z" fill="#29C5F6"/>
<g filter="url(#filter0_d_3_183)">
<path d="M50 41.682C50 38.6244 52.262 36.4341 55.2317 36.4341C56.3188 36.4341 57.2462 36.6654 58.058 37.1742V38.3769C57.2462 37.8403 56.3766 37.5373 55.2456 37.5373C52.9697 37.5373 51.2027 39.2905 51.2027 41.682C51.2027 44.0735 52.9859 45.8266 55.2895 45.8266C56.4483 45.8266 57.4359 45.5075 58.2754 44.8414V46.0441C57.4636 46.6246 56.4205 46.9276 55.2317 46.9276C52.2759 46.9276 50 44.7674 50 41.6797V41.682Z" fill="white"/>
<path d="M66.5257 36.5498H67.6428L72.1506 46.7542H70.904L69.6712 44.0157H64.4534L63.2507 46.7542H62.0179L66.5257 36.5498ZM69.2942 42.9703L67.0762 38.0277L64.8581 42.9703H69.2942Z" fill="white"/>
<path d="M76.5702 36.6073H80.8467C82.9329 36.6073 84.1217 37.7822 84.1217 39.4475C84.1217 41.1128 82.9329 42.3316 80.8467 42.3316H77.7451V46.7515H76.5702V36.605V36.6073ZM80.7588 41.2608C82.1511 41.2608 82.9468 40.6363 82.9468 39.4776C82.9468 38.3188 82.1488 37.6805 80.7588 37.6805H77.7451V41.2608H80.7588Z" fill="white"/>
<path d="M88.8771 36.6074H90.052V46.754H88.8771V36.6074Z" fill="white"/>
<path d="M98.0937 37.6806H94.629V36.6074H102.775V37.6806H99.2825V46.754H98.0937V37.6806Z" fill="white"/>
<path d="M109.358 36.5498H110.475L114.982 46.7542H113.736L112.503 44.0157H107.285L106.082 46.7542H104.85L109.358 36.5498ZM112.126 42.9703L109.908 38.0277L107.69 42.9703H112.126Z" fill="white"/>
<path d="M119.402 36.6074H120.577V45.6808H126.186V46.754H119.402V36.6074Z" fill="white"/>
</g>
<path d="M8.63189 12.6602C12.9307 17.0635 17.9931 22.1083 20.2807 27.5712C22.703 33.3584 20.5731 39.959 17.9967 44.1727C15.4203 48.3864 13.7351 51.8258 14.5786 52.5186C15.422 53.2114 21.25 48.9836 22.586 41.7859C24.0373 33.9662 23.2877 27.9717 17.435 20.8077C10.9301 12.8445 4.41818 7.74305 1.84176 5.964C-0.734669 4.18496 -1.15462 -0.966115 4.18251 0.159077C9.52141 1.2825 25.7685 8.77433 29.7483 17.0157C33.7281 25.2571 26.0024 42.3954 23.7077 46.3752C27.0797 38.0878 32.089 24.8353 28.437 17.5774C24.785 10.3195 10.6448 3.99713 7.22673 2.92156C3.80863 1.84598 0.812251 1.42248 2.40347 3.53111C3.99468 5.63974 8.39622 8.02656 14.2029 14.1611C20.0096 20.2956 23.3799 25.1649 24.6911 31.1116C26.0024 37.0583 24.5511 44.0823 21.9747 48.436C19.3983 52.7897 15.6542 55.554 13.2656 54.1488C10.877 52.7436 15.4344 45.8525 17.5271 41.8337C19.7722 37.5243 21.8826 31.2037 17.9488 25.0232C14.0151 18.8426 11.5344 15.8923 8.63012 12.662L8.63189 12.6602Z" fill="url(#paint0_linear_3_183)"/>
<defs>
<filter id="filter0_d_3_183" x="46" y="36.4341" width="84.1859" height="18.4937" filterUnits="userSpaceOnUse" color-interpolation-filters="sRGB">
<feFlood flood-opacity="0" result="BackgroundImageFix"/>
<feColorMatrix in="SourceAlpha" type="matrix" values="0 0 0 0 0 0 0 0 0 0 0 0 0 0 0 0 0 0 127 0" result="hardAlpha"/>
<feOffset dy="4"/>
<feGaussianBlur stdDeviation="2"/>
<feComposite in2="hardAlpha" operator="out"/>
<feColorMatrix type="matrix" values="0 0 0 0 0 0 0 0 0 0 0 0 0 0 0 0 0 0 0.25 0"/>
<feBlend mode="normal" in2="BackgroundImageFix" result="effect1_dropShadow_3_183"/>
<feBlend mode="normal" in="SourceGraphic" in2="effect1_dropShadow_3_183" result="shape"/>
</filter>
<linearGradient id="paint0_linear_3_183" x1="6.32658" y1="-1.48353" x2="27.7052" y2="51.1684" gradientUnits="userSpaceOnUse">
<stop offset="0.21" stop-color="#29C5F6"/>
<stop offset="0.51" stop-color="#1B88DD"/>
<stop offset="0.87" stop-color="#29C5F6"/>
</linearGradient>
</defs>
</svg>
